<svg width="100" height="20" viewBox="0 0 100 20" fill="none" xmlns="http://www.w3.org/2000/svg">
<g clip-path="url(#clip0_2_2)">
<path d="M32.7978 12.8697C31.9234 13.7269 30.8611 14.1555 29.611 14.1555C28.3444 14.1555 27.2781 13.7269 26.4119 12.8697C25.5457 12.0045 25.1126 10.9432 25.1126 9.68594C25.1126 8.42871 25.5457 7.37148 26.4119 6.51435C27.2781 5.649 28.3444 5.21626 29.611 5.21626C30.8694 5.21626 31.9317 5.649 32.7978 6.51435C33.6721 7.37148 34.1093 8.42871 34.1093 9.68594C34.1093 10.9349 33.6721 11.9962 32.7978 12.8697ZM27.9562 11.3635C28.4057 11.7962 28.9572 12.0125 29.611 12.0125C30.2647 12.0125 30.8162 11.7962 31.2657 11.3635C31.7069 10.9227 31.9276 10.3634 31.9276 9.68594C31.9276 9.00022 31.7069 8.44503 31.2657 8.02052C30.8244 7.57968 30.2729 7.35934 29.611 7.35934C28.949 7.35934 28.3975 7.57969 27.9562 8.02052C27.515 8.44504 27.2944 9.00022 27.2944 9.68594C27.2944 10.3634 27.515 10.9227 27.9562 11.3635ZM35.4327 5.40005H38.7667C39.6327 5.40005 40.36 5.68162 40.9484 6.2449C41.5368 6.8083 41.8309 7.52667 41.8309 8.40011C41.8309 9.27369 41.5368 9.99205 40.9484 10.5553C40.36 11.1186 39.6327 11.4003 38.7667 11.4003H37.6268V13.9718H35.4327V5.40005H35.4327ZM37.6268 9.31859H38.7667C39.0117 9.31859 39.2182 9.23283 39.3857 9.06142C39.5532 8.88989 39.6369 8.66954 39.6369 8.40011C39.6369 8.13068 39.5532 7.91241 39.3857 7.74493C39.2182 7.57771 39.0117 7.49403 38.7667 7.49403H37.6268V9.31859ZM49.9079 13.9718H47.7262V9.66138L44.6987 13.9718H42.995V5.40005H45.189V9.71048L48.2165 5.40005H49.9079V13.9718H49.9079ZM53.119 4.97148C52.8493 4.97148 52.6184 4.87553 52.4264 4.68363C52.2343 4.49173 52.1383 4.2612 52.1383 3.99177C52.1383 3.72233 52.2343 3.4918 52.4264 3.2999C52.6184 3.108 52.8493 3.01205 53.119 3.01205C53.3804 3.01205 53.6071 3.108 53.7992 3.2999C53.9911 3.4918 54.0872 3.72233 54.0872 3.99177C54.0872 4.2612 53.9911 4.49173 53.7992 4.68363C53.6071 4.87553 53.3804 4.97148 53.119 4.97148ZM55.4968 4.97148C55.2353 4.97148 55.0085 4.87553 54.8165 4.68363C54.6245 4.49173 54.5284 4.2612 54.5284 3.99177C54.5284 3.72233 54.6245 3.4918 54.8165 3.2999C55.0085 3.108 55.2353 3.01205 55.4968 3.01205C55.7665 3.01205 55.9974 3.108 56.1893 3.2999C56.3814 3.4918 56.4773 3.72233 56.4773 3.99177C56.4773 4.2612 56.3814 4.49173 56.1893 4.68363C55.9974 4.87553 55.7665 4.97148 55.4968 4.97148ZM53.7686 10.6532V11.9146H57.0902V13.9718H51.5745V5.40005H57.0289V7.44495H53.7686V8.63286H56.7225V10.6532H53.7686ZM63.0468 8.57165V5.40005H65.2285V13.9718H63.0468V10.6778H60.6321V13.9718H58.438V5.40005H60.6321V8.57165H63.0468ZM69.0891 8.55938H70.4374C71.3036 8.55938 72.0022 8.80427 72.5334 9.29406C73.0563 9.78385 73.3177 10.4371 73.3177 11.2533C73.3177 12.0697 73.0563 12.7269 72.5334 13.2249C72.0105 13.7229 71.3118 13.9718 70.4374 13.9718H66.8951V5.40006H72.5824V7.51846H69.0891V8.55939V8.55938ZM69.0891 11.9636H70.3515C70.8746 11.9636 71.136 11.7268 71.136 11.2533C71.136 11.0165 71.0665 10.837 70.9276 10.7146C70.7887 10.592 70.5967 10.5309 70.3515 10.5309H69.0891V11.9636H69.0891ZM81.7993 12.8697C80.925 13.7269 79.8627 14.1555 78.6125 14.1555C77.3459 14.1555 76.2795 13.7269 75.4133 12.8697C74.5472 12.0045 74.1141 10.9432 74.1141 9.68594C74.1141 8.42871 74.5472 7.37148 75.4133 6.51435C76.2795 5.649 77.3458 5.21626 78.6125 5.21626C79.8708 5.21626 80.9331 5.649 81.7993 6.51435C82.6737 7.37148 83.1107 8.42871 83.1107 9.68594C83.1107 10.9349 82.6737 11.9962 81.7993 12.8697ZM76.9578 11.3635C77.4071 11.7962 77.9588 12.0125 78.6125 12.0125C79.2662 12.0125 79.8177 11.7962 80.2671 11.3635C80.7084 10.9227 80.929 10.3634 80.929 9.68594C80.929 9.00022 80.7083 8.44503 80.2671 8.02052C79.8258 7.57968 79.2743 7.35934 78.6125 7.35934C77.9506 7.35934 77.399 7.57969 76.9578 8.02052C76.5165 8.44504 76.2958 9.00022 76.2958 9.68594C76.2958 10.3634 76.5165 10.9227 76.9578 11.3635ZM89.0429 8.57165V5.40005H91.2247V13.9718H89.0429V10.6778H86.6282V13.9718H84.4342V5.40005H86.6282V8.57165H89.0429ZM97.1567 9.56349L100 13.9718H97.549L95.0853 10.1391V13.9718H92.8912V5.40006H95.0853V9.00022L97.4264 5.40006H99.8778L97.1567 9.56351V9.56349Z" fill="#011957"/>
<path fill-rule="evenodd" clip-rule="evenodd" d="M9.69518 0C11.9144 0 13.9594 0.745248 15.5933 1.99882C17.244 3.26532 18.4754 5.05111 19.0426 7.11142H19.0435L19.0639 7.18778C19.1401 7.47406 19.2039 7.76581 19.254 8.06227C19.3036 8.35494 19.34 8.65167 19.3626 8.95112L19.3709 9.06116H12.5924L12.1888 10.0196L19.3844 10.0192L19.3797 10.1256C19.3664 10.4249 19.3394 10.7206 19.2996 11.0121C19.2593 11.3072 19.2058 11.5977 19.1397 11.8821L19.1213 11.9618H19.1201C18.6057 14.0958 17.3842 15.9547 15.7172 17.2766C14.0632 18.5882 11.9707 19.3717 9.6952 19.3717C9.44145 19.3717 9.18901 19.3618 8.93826 19.3425C8.68778 19.323 8.4373 19.2937 8.18773 19.2546C8.00977 19.2267 7.35148 19.118 7.22069 19.0527C7.09408 19.0194 6.9672 18.9831 6.84059 18.9441C6.71111 18.9043 6.58501 18.8626 6.46259 18.8194L6.36028 18.7833L9.25461 11.9622H8.09837L5.3556 18.3497L5.258 18.2995C4.99419 18.1636 4.73612 18.0149 4.48499 17.8546C4.23084 17.6925 3.98677 17.5204 3.75379 17.3398L3.69695 17.2956L3.69708 17.295C2.55991 16.3991 1.62789 15.2536 0.984104 13.9409C0.354047 12.6561 7.62939e-05 11.212 7.62939e-05 9.68595C7.62939e-05 7.01131 1.08537 4.5898 2.83979 2.83704C4.59421 1.08428 7.01816 1.30642e-05 9.6952 1.30642e-05L9.69518 0ZM10.4767 9.06116H9.34395L8.93223 10.02H10.0716L10.4767 9.06116H10.4767ZM14.6746 4.11683L13.4136 7.11142H16.6978C16.488 6.5373 16.2093 5.99557 15.8722 5.49639C15.5296 4.9891 15.1269 4.52582 14.6746 4.11685L14.6746 4.11683ZM11.3003 7.11142L13.0407 2.99093C12.5384 2.73494 12.0039 2.53404 11.4452 2.3962C10.874 2.25534 10.2768 2.18055 9.66238 2.18055C7.60364 2.18055 5.73188 3.02201 4.37506 4.37766C3.01812 5.73319 2.17587 7.60317 2.17587 9.65983V9.71205C2.17587 9.7888 2.17678 9.85655 2.17835 9.91465L2.18201 10.0204L6.81379 10.0201L8.06267 7.11144H11.3003V7.11142ZM5.97975 11.9623L2.52448 11.9625C2.72243 12.585 2.99997 13.1723 3.34478 13.7123C3.69405 14.2596 4.11335 14.7597 4.58961 15.1995L5.97975 11.9623ZM16.7999 11.9615L11.366 11.9619L9.15434 17.1741C9.21666 17.1784 9.27769 17.1819 9.33753 17.1845C9.44036 17.189 9.54868 17.1912 9.66224 17.1912C11.3321 17.1912 12.8786 16.6376 14.1272 15.7051C15.3716 14.7757 16.3202 13.4702 16.7999 11.9615Z" fill="#F9B503"/>
</g>
<defs>
<clipPath id="clip0_2_2">
<rect width="100" height="19.3717" fill="white"/>
</clipPath>
</defs>
</svg>
